<?xml version="1.0" standalone="no"?>
<!DOCTYPE svg PUBLIC "-//W3C//DTD SVG 20010904//EN"
 "http://www.w3.org/TR/2001/REC-SVG-20010904/DTD/svg10.dtd">
<svg version="1.0" xmlns="http://www.w3.org/2000/svg"
 width="192.000000pt" height="192.000000pt" viewBox="0 0 192.000000 192.000000"
 preserveAspectRatio="xMidYMid meet">
<metadata>
Created by potrace 1.10, written by Peter Selinger 2001-2011
</metadata>
<g transform="translate(0.000000,192.000000) scale(0.100000,-0.100000)"
fill="#000000" stroke="none">
<path d="M910 1811 c-58 -6 -121 -26 -243 -78 -43 -18 -87 -65 -116 -121 -21
-42 -45 -206 -40 -276 3 -35 1 -45 -9 -41 -29 11 -52 -14 -52 -58 0 -72 24
-139 77 -217 28 -41 54 -90 58 -109 19 -85 39 -109 175 -206 107 -76 175 -105
244 -105 55 0 68 4 118 37 77 52 222 176 248 213 17 23 23 50 27 122 4 63 12
106 25 133 15 29 22 69 25 143 5 97 5 102 -14 102 -23 0 -53 -29 -53 -51 0 -9
7 -5 19 10 13 17 20 20 26 12 11 -19 15 -110 4 -116 -5 -4 -9 5 -9 18 0 13 -9
32 -20 42 -20 18 -20 17 -20 -10 0 -15 8 -34 18 -41 10 -8 12 -13 5 -14 -9 0
-13 -15 -12 -42 1 -28 3 -34 6 -18 3 14 9 30 15 35 19 18 -3 -69 -22 -90 -14
-15 -19 -35 -19 -77 1 -63 -7 -108 -26 -145 -12 -22 -14 -23 -23 -7 -11 20
-32 11 -31 -14 0 -14 2 -13 9 3 8 19 9 19 9 -2 1 -15 -8 -24 -30 -32 -19 -6
-28 -15 -23 -22 3 -6 0 -15 -7 -20 -19 -12 -27 -11 -32 4 -2 6 -2 1 0 -11 2
-15 0 -21 -7 -17 -5 3 -13 -1 -16 -10 -5 -12 -9 -13 -20 -4 -11 9 -14 6 -14
-16 0 -20 -4 -26 -15 -21 -8 3 -15 0 -15 -7 0 -14 -49 -39 -61 -31 -5 3 -9 0
-9 -7 0 -8 -4 -8 -16 1 -13 11 -16 10 -21 -8 -8 -32 -23 -27 -23 7 0 17 -4 32
-9 36 -6 3 -7 -10 -4 -32 l6 -38 -28 27 c-15 15 -32 25 -37 22 -6 -4 -5 3 1
14 6 12 7 23 2 26 -12 8 -21 -4 -21 -26 0 -22 -28 -24 -36 -3 -4 8 -12 15 -20
15 -9 0 -14 11 -14 28 -1 24 -2 25 -14 10 -7 -10 -16 -18 -19 -18 -10 0 -48
73 -43 85 2 6 0 18 -5 26 -6 10 -9 2 -9 -24 0 -35 -2 -37 -20 -27 -11 6 -20
15 -20 21 0 6 5 7 10 4 6 -3 10 4 10 17 -1 20 -2 21 -11 6 -5 -10 -15 -18 -20
-18 -12 0 -48 40 -49 54 0 5 -8 18 -17 29 -13 15 -14 18 -3 12 12 -6 13 -5 3
6 -7 7 -13 20 -13 28 0 19 -75 143 -100 166 -11 10 -20 26 -20 36 0 10 -4 21
-10 24 -5 3 -10 24 -10 46 0 35 2 39 18 30 16 -9 20 -3 32 52 8 34 15 91 15
126 0 46 4 65 15 71 77 35 94 49 97 75 4 25 2 27 -12 15 -8 -7 -13 -15 -10
-18 9 -9 -16 -31 -29 -26 -7 3 -19 -2 -26 -11 -14 -17 -40 -20 -40 -5 0 6 7
13 16 17 10 3 12 8 5 12 -14 9 -2 51 16 51 17 0 77 60 68 68 -3 4 -9 2 -13 -3
-4 -6 -20 -16 -37 -23 -29 -13 -29 -13 8 21 21 20 63 46 95 58 31 13 72 32 90
42 19 9 55 20 80 23 26 4 56 8 67 9 11 2 28 4 38 4 11 1 15 6 11 12 -9 15 36
1 54 -17 7 -8 19 -14 25 -15 7 0 22 -2 35 -5 33 -6 27 2 -21 25 -54 26 -85 30
-167 22z"/>
<path d="M1235 1722 c6 -4 31 -47 56 -97 32 -61 51 -89 62 -87 9 1 17 -6 20
-20 3 -17 5 -14 6 10 1 22 -4 32 -13 32 -18 0 -26 12 -32 48 -8 45 -68 122
-95 122 -9 0 -10 -3 -4 -8z"/>
<path d="M1334 1484 c4 -15 9 -40 12 -58 11 -64 15 -76 24 -76 6 0 10 20 10
45 0 25 -5 45 -11 45 -5 0 -8 4 -5 9 3 5 -1 14 -9 21 -7 6 -11 18 -8 26 3 8 0
14 -7 14 -8 0 -10 -9 -6 -26z"/>
<path d="M592 1478 c-16 -16 -15 -28 3 -28 17 0 20 -16 4 -26 -6 -3 -8 -17 -4
-33 12 -48 20 -41 21 19 1 38 -3 60 -10 60 -6 0 -4 5 4 10 8 5 10 10 5 10 -6
0 -16 -5 -23 -12z"/>
<path d="M1095 1428 c-22 -5 -49 -15 -59 -23 -18 -13 -18 -16 -2 -40 9 -14 23
-25 31 -25 9 0 12 -6 9 -15 -11 -27 16 -45 67 -45 26 0 51 5 54 10 4 7 -2 9
-19 4 -34 -8 -87 13 -79 32 6 16 43 19 43 4 0 -5 7 -10 16 -10 10 0 14 5 10
16 -3 8 -2 12 4 9 6 -3 10 0 10 7 1 8 7 6 18 -7 20 -24 54 -30 82 -15 23 13
27 30 5 30 -8 0 -15 3 -15 8 0 4 -45 7 -100 7 -72 -1 -104 3 -112 12 -15 18
-8 23 51 32 28 4 54 11 57 14 8 7 -19 5 -71 -5z"/>
<path d="M820 1411 c0 -5 12 -10 28 -10 55 -2 63 -4 60 -20 -3 -15 -59 -31
-154 -44 -16 -2 -47 -10 -67 -18 -29 -10 -37 -18 -35 -34 3 -18 13 -21 88 -28
46 -4 96 -3 110 1 20 8 15 9 -28 9 -55 1 -80 13 -68 32 10 15 43 14 49 -1 3
-10 8 -8 18 4 19 22 86 40 86 23 0 -8 -9 -11 -23 -9 -18 3 -21 0 -17 -15 3
-13 10 -18 21 -14 12 5 14 2 9 -13 -7 -18 -6 -18 6 -2 11 13 16 15 25 6 18
-18 14 -52 -8 -81 -26 -33 -26 -35 13 -35 31 0 32 1 32 42 0 22 -3 46 -6 51
-3 6 -7 34 -7 63 0 28 -4 57 -8 63 -16 27 -124 53 -124 30z"/>
<path d="M630 1171 c0 -5 7 -14 15 -21 8 -7 15 -19 15 -26 0 -8 5 -14 10 -14
15 0 12 16 -5 34 -8 8 -15 19 -15 25 0 6 -4 11 -10 11 -5 0 -10 -4 -10 -9z"/>
<path d="M1128 1155 c9 -11 40 -32 70 -45 29 -14 56 -28 59 -33 8 -13 -8 -68
-20 -65 -7 1 -22 -4 -35 -11 -13 -7 -74 -16 -135 -21 -108 -9 -202 -27 -149
-29 12 -1 22 -7 22 -16 0 -8 4 -15 10 -15 5 0 7 7 4 15 -5 11 2 15 27 16 19 1
58 3 87 5 32 2 51 0 47 -6 -10 -16 11 -12 55 11 23 12 43 19 46 17 2 -3 18 7
35 23 42 39 50 96 17 124 -24 22 -111 54 -140 52 -15 0 -15 -2 0 -22z"/>
<path d="M860 1130 c0 -6 7 -24 15 -40 13 -25 18 -28 33 -19 14 9 27 7 61 -11
l43 -21 37 25 c20 14 44 26 53 26 17 0 34 17 26 26 -3 2 -21 -3 -41 -11 -49
-20 -84 -19 -115 5 -17 14 -29 17 -36 10 -15 -15 -46 -12 -52 5 -7 17 -24 20
-24 5z"/>
<path d="M800 1110 c0 -5 -7 -10 -15 -10 -8 0 -15 -9 -15 -20 0 -19 1 -19 25
2 26 23 32 38 15 38 -5 0 -10 -4 -10 -10z"/>
<path d="M704 1028 c-11 -34 -12 -58 -2 -64 5 -3 3 -13 -4 -22 -10 -12 -10
-16 0 -19 6 -3 12 -15 12 -27 0 -22 17 -46 32 -46 4 0 8 5 8 11 0 5 -4 8 -9 4
-22 -13 -34 99 -16 154 3 10 1 22 -4 25 -5 4 -13 -4 -17 -16z"/>
<path d="M770 1030 c-8 -25 -5 -47 7 -43 7 3 13 -1 13 -9 0 -28 35 -48 85 -48
45 0 47 1 29 15 -10 8 -29 15 -42 15 -25 0 -52 21 -52 39 0 6 -6 11 -14 11 -8
0 -17 6 -19 13 -3 6 -6 10 -7 7z"/>
<path d="M860 905 c0 -16 91 -49 137 -49 35 0 49 -4 43 -11 -5 -6 1 -11 17
-12 19 -1 22 1 12 8 -12 8 -12 10 1 19 8 5 20 10 26 10 6 0 17 7 24 15 11 14
10 14 -14 5 -40 -15 -151 -12 -193 5 -36 15 -53 19 -53 10z"/>
<path d="M107 339 l3 -241 60 -1 c59 -2 60 -2 60 26 0 23 -4 27 -30 27 l-30 0
0 190 0 190 30 -6 c28 -6 30 -5 30 25 l0 31 -62 0 -63 0 2 -241z"/>
<path d="M260 386 l0 -196 73 1 c99 0 138 15 160 60 41 84 30 254 -19 300 -23
21 -37 24 -120 27 l-94 4 0 -196z m167 104 c7 -14 13 -61 13 -105 0 -102 -13
-129 -63 -133 l-37 -3 0 136 0 136 37 -3 c28 -2 41 -9 50 -28z"/>
<path d="M570 385 l0 -195 110 0 110 0 0 36 0 36 -72 -4 -71 -3 -1 53 -1 52
68 0 68 0 -3 32 -3 32 -65 1 -64 0 0 45 0 45 69 0 70 0 3 33 3 32 -110 0 -111
0 0 -195z m61 -19 c-11 -12 -21 -28 -21 -36 0 -23 -9 -6 -15 29 -3 19 -3 47 0
63 l7 28 25 -31 26 -30 -22 -23z m-12 -106 c5 0 11 -9 14 -20 6 -24 1 -25 -19
-6 -8 8 -13 30 -13 48 2 30 2 31 6 6 2 -16 8 -28 12 -28z"/>
<path d="M873 558 c-37 -41 -43 -65 -43 -173 0 -156 22 -195 109 -195 28 0 48
7 61 20 20 20 20 20 20 0 0 -16 7 -20 30 -20 l30 0 0 105 0 105 -65 0 -65 0 0
-31 c0 -28 2 -31 25 -25 32 8 41 -11 25 -58 -14 -45 -45 -56 -74 -27 -18 19
-21 33 -21 124 0 108 12 147 44 147 22 0 51 -30 51 -53 0 -13 9 -17 35 -17 30
0 35 3 35 25 0 65 -38 95 -124 95 -42 0 -57 -5 -73 -22z"/>
<path d="M1130 385 l0 -195 110 0 110 0 0 36 0 36 -71 -3 -71 -4 -2 53 -1 52
68 0 68 0 -3 33 -3 32 -62 -3 -63 -4 0 51 0 50 65 -6 65 -6 0 37 0 36 -105 0
-105 0 0 -195z m70 25 c8 -14 7 -25 -2 -40 -17 -26 -26 -25 -40 5 -8 19 -8 28
2 40 17 20 27 19 40 -5z m-3 -165 c8 -23 -4 -30 -22 -12 -19 20 -19 27 0 27 9
0 18 -7 22 -15z"/>
<path d="M1390 385 l0 -195 35 0 35 0 0 113 c0 131 -6 163 -26 146 -12 -9 -14
-4 -14 34 0 29 5 47 14 50 17 7 26 -1 26 -24 0 -9 6 -20 13 -22 9 -4 9 -8 1
-14 -8 -6 2 -49 35 -145 l45 -138 43 0 43 0 0 195 0 195 -35 0 -35 0 1 -92 c0
-93 14 -200 19 -148 2 18 4 20 7 8 2 -10 10 -18 16 -18 7 0 6 -4 -3 -10 -10
-7 -11 -10 -2 -10 8 0 10 -9 6 -28 -11 -53 -12 -54 -34 -42 -16 8 -20 20 -19
54 2 28 -12 84 -41 164 l-43 122 -43 0 -44 0 0 -195z"/>
<path d="M1670 549 c0 -30 2 -31 30 -25 l30 6 0 -190 0 -190 -31 0 c-27 0 -30
-3 -27 -26 3 -24 6 -26 66 -27 l62 -2 0 243 0 242 -65 0 -65 0 0 -31z"/>
</g>
</svg>
